<svg width="32" height="32" xmlns="http://www.w3.org/2000/svg">

 <g>
  <title>background</title>
  <rect fill="none" id="canvas_background" height="402" width="582" y="-1" x="-1"/>
 </g>
 <g>
  <title>Layer 1</title>
  <path fill="#ffffff" id="svg_1" d="m28,16c-1.219,0 -1.797,0.859 -2,1.766c-0.731,3.264 -3.833,8.234 -10,8.234c-5.523,0 -10,-4.478 -10,-10s4.477,-10 10,-10c2.24,0 4.295,0.753 5.96,2l-1.96,0c-1.104,0 -2,0.896 -2,2s0.896,2 2,2l6,0c1.104,0 2,-0.896 2,-2l0,-6c0,-1.104 -0.896,-2 -2,-2s-2,0.896 -2,2l0,0.518c-2.267,-1.586 -5.023,-2.518 -8,-2.518c-7.732,0 -14,6.268 -14,14s6.268,14 14,14c9.979,0 14,-9.5 14,-11.875c0,-1.453 -1.062,-2.125 -2,-2.125z"/>
 </g>
</svg>