<svg width="1000" height="1000" xmlns="http://www.w3.org/2000/svg">
 <metadata>Svg Vector Icons : http://www.onlinewebfonts.com/icon</metadata>

 <g>
  <title>background</title>
  <rect fill="none" id="canvas_background" height="402" width="582" y="-1" x="-1"/>
 </g>
 <g>
  <title>Layer 1</title>
  <g id="svg_1">
   <g id="svg_2" transform="translate(0,511) scale(0.10000000149011612,-0.10000000149011612) ">
    <path fill="#ffffff" id="svg_3" d="m7657.2,4079.2c-38.3,-11.5 -99.6,-49.8 -134.1,-86.2l-65.2,-67.1l-5.8,-525l-5.7,-526.9l-3433.7,-3.8c-3880.2,-5.7 -3519.9,9.6 -3709.6,-161c-141.8,-128.4 -203.1,-264.4 -203.1,-458c0,-128.4 7.7,-170.5 53.6,-262.5c57.5,-118.8 159,-220.4 285.5,-287.4l82.4,-44.1l3462.4,-5.7l3462.4,-3.8l5.7,-534.6l5.8,-534.6l47.9,-51.7c72.8,-76.6 139.9,-105.4 254.8,-105.4c78.6,0 120.7,11.5 172.5,46c149.6,101.5 1923.9,1640.1 1945,1686.1c28.7,65.1 28.7,130.3 0,197.4c-24.9,51.7 -1843.3,1624.9 -1956.4,1691.9c-80.5,46 -178.2,59.4 -264.4,36.4z"/>
    <path fill="#ffffff" id="svg_4" d="m7657.2,-212.9c-38.3,-11.5 -99.6,-49.8 -134.1,-86.2l-65.2,-67.1l-5.8,-525l-5.7,-526.9l-3433.7,-3.8c-3895.5,-5.7 -3521.8,11.5 -3719.2,-170.5c-141.8,-128.4 -191.6,-249.1 -193.5,-448.4c0,-130.3 7.7,-170.5 53.6,-262.5c57.5,-118.8 159,-220.4 285.5,-287.4l82.4,-44.1l3462.4,-5.7l3462.4,-3.8l5.7,-534.6l5.8,-534.6l47.9,-51.7c26.8,-28.7 70.9,-63.2 99.6,-78.6c74.7,-38.3 243.4,-34.5 312.3,9.6c103.5,63.2 1895.1,1609.5 1941,1670.8c47.9,69 53.6,143.7 19.2,222.3c-24.9,51.7 -1843.3,1624.9 -1956.4,1691.9c-80.3,45.9 -178,59.3 -264.2,36.3z"/>
   </g>
  </g>
 </g>
</svg>